# xmcd CD database file
#
# Track frame offsets:
#	150
#	19797
#	28251
#	30197
#	32357
#	51051
#	55256
#	64095
#	75101
#	86101
#	95189
#	98888
#	110549
#	121261
#	133836
#	147512
#	158122
#	167416
#
# Disc length: 2532 seconds
#
# Revision: 0
# Processed by: cddbd v1.4PL0 Copyright (c) Steve Scherf et al.
# Submitted via: CDex 1.51
#
DISCID=e409e212
DTITLE=Matthew T. and The Durration - Live at The Durr's
DYEAR=2002
DGENRE=Blues
TTITLE0=No More Chocolates
TTITLE1=The Spaniard
TTITLE2=Random Stuff 01
TTITLE3=Random Stuff 02
TTITLE4=Random Stuff 03
TTITLE5=Random Stuff 04
TTITLE6=Random Stuff 05
TTITLE7=Random Stuff 06
TTITLE8=Random Stuff 07
TTITLE9=Random Stuff 08
TTITLE10=Random Stuff 09
TTITLE11=Random Stuff 10
TTITLE12=Random Stuff 11
TTITLE13=Random Stuff 12
TTITLE14=Random Stuff 13
TTITLE15=Random Stuff 14
TTITLE16=Random Stuff 15
TTITLE17=Random Stuff 16
EXTD=YEAR: 2002
EXTT0=
EXTT1=
EXTT2=
EXTT3=
EXTT4=
EXTT5=
EXTT6=
EXTT7=
EXTT8=
EXTT9=
EXTT10=
EXTT11=
EXTT12=
EXTT13=
EXTT14=
EXTT15=
EXTT16=
EXTT17=
PLAYORDER=
